<svg width="14" height="15" viewBox="0 0 14 15" fill="none" xmlns="http://www.w3.org/2000/svg">
<g clip-path="url(#clip0_56_3530)">
<path d="M4.66675 5.63338C4.66675 5.01454 4.91258 4.42105 5.35017 3.98347C5.78775 3.54588 6.38124 3.30005 7.00008 3.30005C7.61892 3.30005 8.21241 3.54588 8.65 3.98347C9.08758 4.42105 9.33342 5.01454 9.33342 5.63338C9.33342 6.25222 9.08758 6.84571 8.65 7.2833C8.21241 7.72088 7.61892 7.96672 7.00008 7.96672C6.38124 7.96672 5.78775 7.72088 5.35017 7.2833C4.91258 6.84571 4.66675 6.25222 4.66675 5.63338Z" fill="#44444C"/>
<path fill-rule="evenodd" clip-rule="evenodd" d="M7 0.5C5.14348 0.5 3.36301 1.2375 2.05025 2.55025C0.737498 3.86301 0 5.64348 0 7.5C0 9.35652 0.737498 11.137 2.05025 12.4497C3.36301 13.7625 5.14348 14.5 7 14.5C8.85652 14.5 10.637 13.7625 11.9497 12.4497C13.2625 11.137 14 9.35652 14 7.5C14 5.64348 13.2625 3.86301 11.9497 2.55025C10.637 1.2375 8.85652 0.5 7 0.5ZM0.933333 7.5C0.933349 6.49636 1.18236 5.50841 1.65806 4.62466C2.13375 3.74092 2.82127 2.989 3.659 2.43628C4.49673 1.88357 5.4585 1.54732 6.45813 1.45768C7.45776 1.36803 8.46401 1.52779 9.38671 1.92264C10.3094 2.31748 11.1198 2.93508 11.7451 3.72008C12.3704 4.50509 12.7913 5.43297 12.9699 6.42059C13.1484 7.40822 13.0792 8.42472 12.7684 9.37901C12.4575 10.3333 11.9148 11.1956 11.1888 11.8885C11.1191 11.0732 10.746 10.3136 10.1431 9.76023C9.54027 9.20682 8.75167 8.89983 7.93333 8.9H6.06667C5.24833 8.89983 4.45973 9.20682 3.85689 9.76023C3.25405 10.3136 2.88088 11.0732 2.8112 11.8885C2.21692 11.3226 1.74398 10.6418 1.42115 9.8873C1.09832 9.13285 0.932345 8.32062 0.933333 7.5Z" fill="#44444C"/>
</g>
<defs>
<clipPath id="clip0_56_3530">
<rect width="14" height="14" fill="white" transform="translate(0 0.5)"/>
</clipPath>
</defs>
</svg>
