<svg width="22" height="25" viewBox="0 0 22 25" fill="none" xmlns="http://www.w3.org/2000/svg">
<path fill-rule="evenodd" clip-rule="evenodd" d="M20.1007 22.549V2.45098C20.1007 1.90952 19.5338 1.47059 18.8345 1.47059H6.88098C6.54779 1.47059 6.22803 1.57228 5.99102 1.7536L2.27551 4.59625C2.03477 4.78044 1.89928 5.03158 1.89928 5.29363V22.549C1.89928 23.0905 2.46617 23.5294 3.16547 23.5294H18.8345C19.5338 23.5294 20.1007 23.0905 20.1007 22.549ZM6.88098 0C6.04801 0 5.2486 0.254218 4.65609 0.707537L0.940577 3.55019C0.338725 4.01065 0 4.63851 0 5.29363V22.549C0 23.9027 1.41723 25 3.16547 25H18.8345C20.5828 25 22 23.9027 22 22.549V2.45098C22 1.09734 20.5828 0 18.8345 0H6.88098Z" fill="#000000"/>
<path fill-rule="evenodd" clip-rule="evenodd" d="M8.7583 8C9.28277 8 9.70794 8.3897 9.70794 8.87043V9.66036H12.6446V8.87046C12.6446 8.38973 13.0697 8.00003 13.5942 8.00003C14.1187 8.00003 14.5438 8.38973 14.5438 8.87046V9.66036H14.8778C16.6261 9.66036 18.0433 10.9594 18.0433 12.5618V19.5252C18.0433 21.1276 16.6261 22.4267 14.8778 22.4267H7.2807C5.53246 22.4267 4.11523 21.1276 4.11523 19.5252V12.5618C4.11523 10.9594 5.53246 9.66036 7.2807 9.66036H7.80865V8.87043C7.80865 8.3897 8.23382 8 8.7583 8ZM7.2807 11.4012H14.8778C15.5771 11.4012 16.144 11.9208 16.144 12.5618V19.5252C16.144 20.1662 15.5771 20.6858 14.8778 20.6858H7.2807C6.58141 20.6858 6.01451 20.1662 6.01451 19.5252V12.5618C6.01451 11.9208 6.58141 11.4012 7.2807 11.4012ZM8.17809 13.9961C8.70257 13.9961 9.12774 14.3858 9.12774 14.8665V15.0438C9.12774 15.5246 8.70257 15.9143 8.17809 15.9143C7.65362 15.9143 7.22845 15.5246 7.22845 15.0438V14.8665C7.22845 14.3858 7.65362 13.9961 8.17809 13.9961ZM9.12774 17.7034C9.12774 17.2227 8.70257 16.833 8.17809 16.833C7.65362 16.833 7.22845 17.2227 7.22845 17.7034V17.8807C7.22845 18.3615 7.65362 18.7512 8.17809 18.7512C8.70257 18.7512 9.12774 18.3615 9.12774 17.8807V17.7034ZM11.08 13.9962C11.6045 13.9962 12.0296 14.3859 12.0296 14.8666V15.0439C12.0296 15.5246 11.6045 15.9143 11.08 15.9143C10.5555 15.9143 10.1304 15.5246 10.1304 15.0439V14.8666C10.1304 14.3859 10.5555 13.9962 11.08 13.9962ZM12.0297 17.7034C12.0297 17.2227 11.6045 16.833 11.08 16.833C10.5555 16.833 10.1304 17.2227 10.1304 17.7034V17.8807C10.1304 18.3615 10.5555 18.7512 11.08 18.7512C11.6045 18.7512 12.0297 18.3615 12.0297 17.8807V17.7034ZM13.9814 13.9962C14.5058 13.9962 14.931 14.3859 14.931 14.8666V15.0439C14.931 15.5246 14.5058 15.9143 13.9814 15.9143C13.4569 15.9143 13.0317 15.5246 13.0317 15.0439V14.8666C13.0317 14.3859 13.4569 13.9962 13.9814 13.9962ZM14.931 17.7034C14.931 17.2227 14.5058 16.833 13.9814 16.833C13.4569 16.833 13.0317 17.2227 13.0317 17.7034V17.8807C13.0317 18.3615 13.4569 18.7512 13.9814 18.7512C14.5058 18.7512 14.931 18.3615 14.931 17.8807V17.7034Z" fill="#000000"/>
</svg>
