<svg width="53" height="20" viewBox="0 0 53 20" fill="none" xmlns="http://www.w3.org/2000/svg">
<path fill-rule="evenodd" clip-rule="evenodd" d="M6.68845 0H2.13925V3.77196H0V7.93312H2.13925V12.8166C2.13925 16.6454 5.24036 19.0858 9.06932 19.0858H11.7573V15.102H9.06334C7.74653 15.102 6.68845 14.0383 6.68845 12.7263V7.93312L9.66019 7.92849C10.8278 7.8809 11.7573 6.91785 11.7573 5.74022V3.77196H6.68845V0ZM32.7625 12.9045C32.7625 14.2099 31.7088 15.2818 30.3936 15.2818C29.0792 15.2818 28.0239 14.2099 28.0239 12.9045C28.0214 12.9045 28.0239 5.96298 28.0239 5.96298C28.0239 4.75271 27.0444 3.77171 25.8322 3.77171H23.4671V12.3238C23.4671 16.1551 25.5384 19.2572 30.3936 19.2572C35.2453 19.2572 37.3234 16.1551 37.3234 12.3238V3.77171H32.7625C32.7625 4.46768 32.7647 12.9045 32.7625 12.9045ZM52.9972 11.8952C52.9722 7.14413 50.384 3.4048 45.6027 3.4048C41.4902 3.4048 38.1709 6.74297 38.1709 11.3153C38.1709 16.2573 41.1818 19.1805 45.6277 19.2566C48.5222 19.2566 51.0417 17.6436 52.3379 15.2676L48.1798 14.1691C47.6637 14.9394 46.7045 15.4539 45.6057 15.4539C43.9793 15.4539 42.6565 14.2948 42.628 12.8819H52.9972C53.0035 12.6619 52.9972 12.1138 52.9972 11.8952ZM42.6279 9.76149C42.6565 8.34996 43.9793 7.19218 45.6056 7.19218C47.2445 7.19218 48.573 8.3399 48.5888 9.76149H42.6279ZM12.8175 10.0839V19.0856H17.3627V10.3099C17.3627 8.99735 18.4278 7.93286 19.7354 7.93286H22.4022V3.77171H19.126C15.6409 3.77171 12.8175 6.59775 12.8175 10.0839Z" fill="#EC1D24"/>
</svg>
