<svg width="12" height="14" viewBox="0 0 12 14" fill="none" xmlns="http://www.w3.org/2000/svg">
<path fill-rule="evenodd" clip-rule="evenodd" d="M10.4735 12.2375V1.76537C10.4735 1.48324 10.1781 1.25453 9.81376 1.25453H3.58535C3.41174 1.25453 3.24513 1.30752 3.12163 1.402L1.18566 2.88317C1.06022 2.97914 0.989623 3.11 0.989623 3.24654V12.2375C0.989623 12.5196 1.285 12.7483 1.64937 12.7483H9.81376C10.1781 12.7483 10.4735 12.5196 10.4735 12.2375ZM3.58535 0.488281C3.15132 0.488281 2.73479 0.620742 2.42606 0.856945L0.490089 2.33811C0.176493 2.57804 0 2.90518 0 3.24654V12.2375C0 12.9428 0.738449 13.5146 1.64937 13.5146H9.81376C10.7247 13.5146 11.4631 12.9428 11.4631 12.2375V1.76537C11.4631 1.06005 10.7247 0.488281 9.81376 0.488281H3.58535Z" fill="white"/>
<path d="M4.26112 7.78122C4.5344 7.78122 4.75593 7.98428 4.75593 8.23476V8.32715C4.75593 8.57763 4.5344 8.78069 4.26112 8.78069C3.98784 8.78069 3.76631 8.57763 3.76631 8.32715V8.23476C3.76631 7.98428 3.98784 7.78122 4.26112 7.78122Z" fill="white"/>
<path d="M4.75594 9.71281C4.75594 9.46233 4.53441 9.25928 4.26113 9.25928C3.98786 9.25928 3.76632 9.46233 3.76632 9.71281V9.8052C3.76632 10.0557 3.98786 10.2587 4.26113 10.2587C4.53441 10.2587 4.75594 10.0557 4.75594 9.8052V9.71281Z" fill="white"/>
<path d="M5.77317 7.78117C6.04645 7.78117 6.26798 7.98423 6.26798 8.23471V8.3271C6.26798 8.57758 6.04645 8.78064 5.77317 8.78064C5.49989 8.78064 5.27836 8.57758 5.27836 8.3271V8.23471C5.27836 7.98423 5.49989 7.78117 5.77317 7.78117Z" fill="white"/>
<path d="M6.26798 9.71281C6.26798 9.46233 6.04645 9.25928 5.77317 9.25928C5.49989 9.25928 5.27836 9.46233 5.27836 9.71281V9.8052C5.27836 10.0557 5.49989 10.2587 5.77317 10.2587C6.04645 10.2587 6.26798 10.0557 6.26798 9.8052V9.71281Z" fill="white"/>
<path d="M7.28499 7.78117C7.55827 7.78117 7.7798 7.98423 7.7798 8.23471V8.3271C7.7798 8.57758 7.55827 8.78064 7.28499 8.78064C7.01171 8.78064 6.79018 8.57758 6.79018 8.3271V8.23471C6.79018 7.98423 7.01171 7.78117 7.28499 7.78117Z" fill="white"/>
<path d="M7.7798 9.71281C7.7798 9.46233 7.55827 9.25928 7.28499 9.25928C7.01171 9.25928 6.79018 9.46233 6.79018 9.71281V9.8052C6.79018 10.0557 7.01171 10.2587 7.28499 10.2587C7.55827 10.2587 7.7798 10.0557 7.7798 9.8052V9.71281Z" fill="white"/>
<path fill-rule="evenodd" clip-rule="evenodd" d="M7.08323 4.65672C7.35651 4.65672 7.57804 4.85978 7.57804 5.11026V5.52207H7.75204C8.66297 5.52207 9.40142 6.19893 9.40142 7.03387V10.6622C9.40142 11.4971 8.66297 12.174 7.75204 12.174H3.79355C2.88263 12.174 2.14418 11.4971 2.14418 10.6622V7.03387C2.14418 6.19893 2.88263 5.52207 3.79355 5.52207H4.06863V5.11028C4.06863 4.8598 4.29016 4.65674 4.56344 4.65674C4.83672 4.65674 5.05825 4.8598 5.05825 5.11028V5.52207H6.58842V5.11026C6.58842 4.85978 6.80996 4.65672 7.08323 4.65672ZM3.79355 6.42915H7.75204C8.11641 6.42915 8.41179 6.69989 8.41179 7.03387V10.6622C8.41179 10.9962 8.11641 11.2669 7.75204 11.2669H3.79355C3.42918 11.2669 3.1338 10.9962 3.1338 10.6622V7.03387C3.1338 6.69989 3.42918 6.42915 3.79355 6.42915Z" fill="white"/>
</svg>
